<svg xmlns="http://www.w3.org/2000/svg" viewBox="0 0 134.54 17.5"><defs><style>.cls-1{fill:#fff;}.cls-2{fill:#fff;}</style></defs><g id="Layer_2" data-name="Layer 2"><g id="Layer_1-2" data-name="Layer 1"><path class="cls-1" d="M132.82,3.23v.26h-.47v1.4h-.27V3.49h-.47V3.23Z"/><path class="cls-1" d="M134.54,3.23V4.89h-.27V3.71l-.51.83h0l-.51-.83V4.89H133V3.23h.29l.51.83.5-.83Z"/><path class="cls-1" d="M49.84,3V6a3.32,3.32,0,0,0-3.75,3.55v6.38H43.35V3.23h2.74V5.36A4,4,0,0,1,49.84,3Z"/><path class="cls-1" d="M19.76,9.59A6.39,6.39,0,0,0,13.4,2.9,6.47,6.47,0,0,0,6.71,9.56a6.49,6.49,0,0,0,6.9,6.67,6.4,6.4,0,0,0,5.54-2.76L16.9,12.15a3.88,3.88,0,0,1-3.27,1.56,3.8,3.8,0,0,1-4.05-3H19.66A8.48,8.48,0,0,0,19.76,9.59ZM9.56,8.5a3.67,3.67,0,0,1,3.81-3.12A3.53,3.53,0,0,1,17,8.5Z"/><path class="cls-1" d="M25.36,0,22.62.81V3.23H20.29V5.87h2.33v6.07c0,3.3,1.67,4.46,5.88,4V13.44c-2.08.1-3.14.12-3.14-1.5V5.87H28.5V3.23H25.36Z"/><path class="cls-1" d="M39,10c0,2.58-1.42,3.65-3.21,3.65a2.65,2.65,0,0,1-2.84-2.94V3.23H30.16V11c0,3.29,2,5.22,4.87,5.22a4.36,4.36,0,0,0,3.92-2v1.61h2.74V3.23H39Z"/><path class="cls-1" d="M58.17,2.9a4.38,4.38,0,0,0-3.93,1.95V3.23H51.51V15.89h2.73V9.11c0-2.59,1.42-3.65,3.22-3.65A2.64,2.64,0,0,1,60.3,8.4v7.49H63V8.12C63,4.83,61,2.9,58.17,2.9Z"/><path class="cls-1" d="M6.49,3V6A3.32,3.32,0,0,0,2.74,9.51v6.38H0V3.23H2.74V5.36A4,4,0,0,1,6.49,3Z"/><path class="cls-2" d="M126.75,2.9a4.38,4.38,0,0,0-3.93,1.95V3.23h-2.74V15.89h2.74V9.11c0-2.59,1.42-3.65,3.21-3.65a2.64,2.64,0,0,1,2.84,2.94v7.49h2.74V8.12C131.61,4.83,129.58,2.9,126.75,2.9ZM77.65,15.28V17.5H70.29V10.14h2.22v3.27a3.87,3.87,0,0,0,2.82-3.85,4,4,0,1,0-7.9,0,3.91,3.91,0,0,0,1.76,3.36v2.94a6.59,6.59,0,0,1-4.49-6.3,6.69,6.69,0,0,1,13.37,0,6.59,6.59,0,0,1-3.21,5.72Zm10.42-12V10c0,2.58-1.41,3.65-3.22,3.65A2.64,2.64,0,0,1,82,10.73V3.23H79.29V11c0,3.29,2,5.22,4.86,5.22a4.36,4.36,0,0,0,3.92-2v1.61h2.74V3.23Zm16.81,6.36A6.39,6.39,0,0,0,98.52,2.9a6.46,6.46,0,0,0-6.69,6.66c0,3.81,2.71,6.67,6.9,6.67a6.42,6.42,0,0,0,5.55-2.76L102,12.15a3.88,3.88,0,0,1-3.27,1.56,3.8,3.8,0,0,1-4-3h10.08A8.48,8.48,0,0,0,104.88,9.59ZM94.68,8.5a3.67,3.67,0,0,1,3.81-3.12,3.53,3.53,0,0,1,3.63,3.12ZM119,9.59a6.39,6.39,0,0,0-6.36-6.69A6.46,6.46,0,0,0,106,9.56a6.48,6.48,0,0,0,6.88,6.67,6.39,6.39,0,0,0,5.55-2.76l-2.25-1.32a3.88,3.88,0,0,1-3.27,1.56,3.8,3.8,0,0,1-4-3h10.08A10.5,10.5,0,0,0,119,9.59ZM108.78,8.5a3.68,3.68,0,0,1,3.83-3.12,3.53,3.53,0,0,1,3.62,3.12Z"/></g></g></svg>